<svg width="50" height="50" viewBox="0 0 50 50" fill="none" xmlns="http://www.w3.org/2000/svg">
<path d="M1 25C1 11.7452 11.7452 1 25 1C38.2548 1 49 11.7452 49 25C49 38.2548 38.2548 49 25 49C11.7452 49 1 38.2548 1 25Z" fill="white"/>
<path d="M25.0001 18.6213C26.953 18.6213 28.2703 19.4649 29.0215 20.1698L31.9566 17.304C30.1539 15.6284 27.8081 14.6 25.0001 14.6C20.9326 14.6 17.4197 16.9342 15.7095 20.3315L19.0721 22.9431C19.9157 20.4355 22.2499 18.6213 25.0001 18.6213Z" fill="#EA4335"/>
<path d="M34.984 25.2311C34.984 24.376 34.9147 23.752 34.7644 23.1049H25V26.9644H30.7316C30.616 27.9235 29.992 29.368 28.6053 30.3386L31.8871 32.8809C33.8516 31.0666 34.984 28.3973 34.984 25.2311Z" fill="#4285F4"/>
<path d="M19.0837 27.0569C18.8641 26.4098 18.737 25.7164 18.737 25C18.737 24.2835 18.8641 23.5902 19.0721 22.9431L15.7094 20.3315C15.0046 21.7413 14.6001 23.3244 14.6001 25C14.6001 26.6755 15.0046 28.2587 15.7094 29.6684L19.0837 27.0569Z" fill="#FBBC05"/>
<path d="M24.9998 35.4C27.8078 35.4 30.1651 34.4756 31.8869 32.8809L28.6051 30.3387C27.7269 30.9511 26.5482 31.3787 24.9998 31.3787C22.2496 31.3787 19.9154 29.5644 19.0834 27.0569L15.7207 29.6684C17.4309 33.0658 20.9322 35.4 24.9998 35.4Z" fill="#34A853"/>
<rect x="0.5" y="0.5" width="49" height="49" rx="24.5" stroke="#DADADA"/>
</svg>
